<?xml version="1.0" encoding="utf-8"?>
<!-- Generator: Adobe Illustrator 23.0.0, SVG Export Plug-In . SVG Version: 6.00 Build 0)  -->
<svg version="1.1" id="Layer_1" xmlns="http://www.w3.org/2000/svg" xmlns:xlink="http://www.w3.org/1999/xlink" x="0px" y="0px"
	 viewBox="0 0 347.5 235" style="enable-background:new 0 0 347.5 235;" xml:space="preserve">
<style type="text/css">
	.st0{fill:#E0B03B;}
	.st1{fill:#FFFFFF;}
	.st2{fill:#FFC843;}
</style>
<g>
	<path class="st0" d="M292.3,23.8H103.6v-8.5c0-6-4.9-10.9-10.9-10.9H30.4c-6,0-10.9,4.9-10.9,10.9v8.5h-3.3C7.3,23.8,0,31.1,0,40.1
		v174.8c0,9,7.3,16.3,16.3,16.3h276c9,0,16.3-7.3,16.3-16.3V40.1C308.5,31.1,301.2,23.8,292.3,23.8z"/>
	<rect x="23.2" y="39.4" class="st1" width="262.1" height="176.1"/>
	<path class="st2" d="M312.4,215.3c-2.1,8.7-11.2,15.8-20.2,15.8h-276c-9,0-14.5-7.1-12.4-15.8L38.5,74.2
		c2.1-8.7,11.2-15.8,20.2-15.8h276c9,0,14.5,7.1,12.4,15.8L312.4,215.3z"/>
</g>
</svg>
