<?xml version="1.0" encoding="utf-8"?>
<!-- Generator: Adobe Illustrator 23.0.0, SVG Export Plug-In . SVG Version: 6.00 Build 0)  -->
<svg version="1.1" id="Layer_1" xmlns="http://www.w3.org/2000/svg" xmlns:xlink="http://www.w3.org/1999/xlink" x="0px" y="0px"
	 viewBox="0 0 241 364" style="enable-background:new 0 0 241 364;" xml:space="preserve">
<style type="text/css">
	.st0{fill:#E0B03B;}
	.st1{fill:#FFFFFF;}
	.st2{fill:#FFC843;}
</style>
<g>
	<path class="st0" d="M213.7,301.3V112.6h8.5c6,0,10.9-4.9,10.9-10.9V39.4c0-6-4.9-10.9-10.9-10.9h-8.5v-3.3c0-9-7.3-16.3-16.3-16.3
		H22.7c-9,0-16.3,7.3-16.3,16.3v276c0,9,7.3,16.3,16.3,16.3h174.8C206.4,317.5,213.7,310.2,213.7,301.3z"/>
	<rect x="22" y="32.2" class="st1" width="176.1" height="262.1"/>
	<path class="st2" d="M22.2,321.4c-8.7-2.1-15.8-11.2-15.8-20.2v-276c0-9,7.1-14.5,15.8-12.4l141.1,34.6
		c8.7,2.1,15.8,11.2,15.8,20.2v276c0,9-7.1,14.5-15.8,12.4L22.2,321.4z"/>
</g>
</svg>
